<?xml version="1.0" encoding="UTF-8" standalone="no"?>
<!DOCTYPE svg PUBLIC "-//W3C//DTD SVG 1.1//EN" "http://www.w3.org/Graphics/SVG/1.1/DTD/svg11.dtd">
<svg width="100%" height="100%" viewBox="0 0 3464 929" version="1.1" xmlns="http://www.w3.org/2000/svg" xmlns:xlink="http://www.w3.org/1999/xlink" xml:space="preserve" xmlns:serif="http://www.serif.com/" style="fill-rule:evenodd;clip-rule:evenodd;stroke-linejoin:round;stroke-miterlimit:2;">
    <g transform="matrix(1,0,0,1,-22.1069,-2328.41)">
        <g transform="matrix(4.16667,0,0,4.16667,776.152,3054.75)">
            <path d="M0,-0.232C0,-17.969 2.777,-29.884 8.329,-35.976C12.801,-40.834 19.435,-43.264 28.225,-43.264C31.233,-43.264 35.493,-42.975 41.008,-42.397C46.521,-41.818 51.284,-41.143 55.294,-40.372L55.294,-35.398C53.982,-35.473 52.788,-35.552 51.708,-35.63C50.628,-35.705 49.375,-35.783 47.949,-35.86C46.521,-35.937 44.959,-36.034 43.264,-36.15C41.567,-36.266 39.909,-36.361 38.29,-36.439C34.51,-36.593 31.156,-36.671 28.225,-36.671C22.904,-36.671 18.74,-35.667 15.732,-33.663C9.639,-29.652 6.594,-18.432 6.594,0C6.594,24.292 13.804,36.437 28.225,36.437C35.861,36.437 44.343,36.13 53.675,35.512L55.294,35.396L55.294,40.486C51.437,41.18 46.772,41.779 41.298,42.279C35.821,42.78 31.465,43.032 28.225,43.032C9.408,43.032 0,28.612 0,-0.232" style="fill:rgb(230,231,232);fill-rule:nonzero;"/>
        </g>
        <g transform="matrix(4.16667,0,0,4.16667,1097.16,2939.07)">
            <path d="M0,55.526L0,-14.575L6.593,-14.575L6.593,55.526C6.593,59.152 7.595,61.466 9.601,62.467C11.142,63.16 13.187,63.508 15.732,63.508L49.857,63.508L49.857,70.101L15.732,70.101C8.02,70.101 3.199,67.828 1.272,63.276C0.423,61.194 0,58.612 0,55.526" style="fill:rgb(230,231,232);fill-rule:nonzero;"/>
        </g>
        <g transform="matrix(4.16667,0,0,4.16667,1413.58,3158.63)">
            <path d="M0,-49.975C-1.197,-47.313 -2.024,-43.861 -2.487,-39.621C-2.95,-35.379 -3.182,-30.637 -3.182,-25.393C-3.182,-20.148 -3.048,-15.85 -2.777,-12.495C-2.508,-9.139 -2.082,-6.171 -1.504,-3.587C-0.926,-1.002 -0.116,1.136 0.925,2.832C1.967,4.529 3.103,5.956 4.338,7.113C5.57,8.27 7.114,9.119 8.965,9.657C12.357,10.739 16.444,11.278 21.227,11.278C26.007,11.278 29.689,11.027 32.273,10.525C34.856,10.025 37.228,9.061 39.388,7.633C41.546,6.206 43.205,4.144 44.362,1.445C46.752,-4.109 47.948,-12.706 47.948,-24.352C47.948,-36.458 46.945,-44.902 44.94,-49.685C44.247,-51.536 43.533,-53.097 42.801,-54.37C42.066,-55.643 41.083,-56.701 39.851,-57.552C38.616,-58.399 37.479,-59.073 36.438,-59.576C35.397,-60.075 34.027,-60.443 32.331,-60.675C29.709,-61.059 26.585,-61.253 22.961,-61.253C19.336,-61.253 16.637,-61.175 14.864,-61.021C13.089,-60.866 11.047,-60.443 8.734,-59.748C6.419,-59.055 4.685,-57.916 3.528,-56.337C2.371,-54.755 1.195,-52.635 0,-49.975M-9.775,-24.468C-9.775,-29.942 -9.506,-34.858 -8.965,-39.217C-8.427,-43.573 -7.713,-47.274 -6.825,-50.321C-5.94,-53.366 -4.743,-55.97 -3.24,-58.129C-1.736,-60.287 -0.174,-61.984 1.446,-63.219C3.065,-64.452 5.07,-65.418 7.461,-66.111C11.394,-67.268 15.674,-67.846 20.301,-67.846C24.928,-67.846 28.358,-67.73 30.597,-67.5C32.832,-67.268 35.146,-66.805 37.537,-66.111C39.927,-65.418 41.913,-64.452 43.494,-63.219C45.074,-61.984 46.618,-60.287 48.122,-58.129C49.626,-55.97 50.8,-53.387 51.649,-50.379C53.577,-43.67 54.541,-36.111 54.541,-27.706C54.541,-19.299 54.233,-12.822 53.616,-8.272C52.998,-3.722 52.034,0.095 50.724,3.18C49.412,6.264 47.948,8.79 46.328,10.756C44.709,12.723 42.587,14.209 39.966,15.211C35.57,16.985 29.709,17.871 22.384,17.871C11.972,17.871 4.838,16.366 0.983,13.359C-2.95,10.352 -5.651,6.187 -7.115,0.866C-8.889,-5.612 -9.775,-14.056 -9.775,-24.468" style="fill:rgb(230,231,232);fill-rule:nonzero;"/>
        </g>
        <g transform="matrix(4.16667,0,0,4.16667,1863.99,2878.34)">
            <path d="M0,85.255L-1.273,85.255C-10.374,85.255 -16.351,84.291 -19.203,82.363C-20.515,81.438 -22.019,80.069 -23.714,78.256C-25.412,76.445 -26.684,74.228 -27.532,71.605C-29.614,65.051 -30.655,57.069 -30.655,47.659L-30.655,0L-24.061,0L-24.061,47.659C-24.061,60.693 -22.404,69.1 -19.087,72.876C-17.855,74.343 -16.735,75.461 -15.732,76.232C-13.959,77.621 -10.798,78.391 -6.247,78.546C-5.014,78.623 -3.124,78.66 -0.579,78.66L0,78.66C5.628,78.66 9.234,78.353 10.815,77.735C12.395,77.12 13.783,76.445 14.98,75.71C16.175,74.979 17.138,74.091 17.872,73.05C18.604,72.009 19.376,70.698 20.185,69.117C20.995,67.537 21.631,65.745 22.094,63.739C23.095,59.112 23.598,53.753 23.598,47.659L23.598,0L30.192,0L30.192,47.659C30.192,62.774 27.684,72.917 22.672,78.082C20.898,79.933 19.298,81.322 17.872,82.247C16.444,83.173 14.497,83.866 12.03,84.33C8.867,84.945 4.858,85.255 0,85.255" style="fill:rgb(230,231,232);fill-rule:nonzero;"/>
        </g>
        <g transform="matrix(4.16667,0,0,4.16667,2120.89,2906.78)">
            <path d="M0,71.026L24.061,71.026C28.069,71.026 31.617,70.026 34.703,68.018C37.786,66.014 40.256,63.316 42.106,59.922C45.731,53.136 47.544,45.077 47.544,35.746C47.544,11.762 39.715,-0.232 24.061,-0.232L0,-0.232L0,71.026ZM-6.593,77.851L-6.593,-6.825L24.061,-6.825C30.462,-6.825 35.704,-5.397 39.794,-2.544C43.957,0.387 46.965,3.896 48.815,7.982C50.974,12.687 52.324,16.813 52.864,20.359C53.713,26.068 54.137,31.08 54.137,35.398C54.137,39.718 53.808,43.784 53.154,47.601C52.498,51.418 51.399,55.179 49.857,58.881C48.313,62.582 46.424,65.822 44.189,68.598C41.951,71.374 39.098,73.611 35.629,75.307C32.158,77.004 28.301,77.851 24.061,77.851L-6.593,77.851Z" style="fill:rgb(230,231,232);fill-rule:nonzero;"/>
        </g>
        <g transform="matrix(4.16667,0,0,4.16667,2434.11,2888.64)">
            <path d="M0,77.664L5.686,-0.86C5.816,-2.652 7.307,-4.039 9.104,-4.039L18.248,-4.039C19.759,-4.039 21.091,-3.05 21.528,-1.604L41.29,63.781L60.594,-1.583C61.024,-3.039 62.361,-4.039 63.88,-4.039L72.92,-4.039C74.704,-4.039 76.19,-2.67 76.336,-0.892L82.772,77.628C82.952,79.823 81.22,81.703 79.018,81.703L75.804,81.703C73.841,81.703 72.208,80.196 72.049,78.24L66.942,15.172L47.948,79.01C47.473,80.607 46.004,81.703 44.338,81.703L38.452,81.703C36.797,81.703 35.336,80.622 34.851,79.039L15.286,15.172L10.736,78.207C10.594,80.177 8.954,81.703 6.979,81.703L3.757,81.703C1.569,81.703 -0.158,79.846 0,77.664" style="fill:rgb(230,231,232);fill-rule:nonzero;"/>
        </g>
        <g transform="matrix(4.16667,0,0,4.16667,3217.59,2883.55)">
            <path d="M0,80.104L0,0.618C0,-1.28 1.539,-2.819 3.437,-2.819L9.141,-2.819C10.307,-2.819 11.393,-2.228 12.026,-1.249L53.53,62.894L53.53,0.618C53.53,-1.28 55.069,-2.819 56.967,-2.819L60.87,-2.819C62.768,-2.819 64.307,-1.28 64.307,0.618L64.307,80.104C64.307,81.661 63.045,82.923 61.488,82.923L55.06,82.923C54.106,82.923 53.217,82.44 52.697,81.64L10.893,17.329L10.893,80.104C10.893,81.661 9.631,82.923 8.075,82.923L2.819,82.923C1.262,82.923 0,81.661 0,80.104" style="fill:rgb(230,231,232);fill-rule:nonzero;"/>
        </g>
        <g transform="matrix(4.16667,0,0,4.16667,3144.87,2887.38)">
            <path d="M0,78.269L-27.226,-0.818C-27.828,-2.564 -29.471,-3.736 -31.318,-3.736L-36.549,-3.736C-38.375,-3.736 -40.004,-2.59 -40.621,-0.872L-69.044,78.233C-69.704,80.07 -68.343,82.005 -66.391,82.005L-59.911,82.005C-58.691,82.005 -57.61,81.221 -57.231,80.061L-33.971,11.726L-24.895,38.616L-24.895,38.617L-16.343,64.856L-11.628,80.023C-11.262,81.202 -10.171,82.005 -8.936,82.005L-2.665,82.005C-0.73,82.005 0.63,80.099 0,78.269" style="fill:rgb(230,231,232);fill-rule:nonzero;"/>
        </g>
        <g transform="matrix(4.16667,0,0,4.16667,3144.87,2892.26)">
            <path d="M0,77.097L-27.226,-1.99C-27.828,-3.736 -33.971,10.554 -33.971,10.554L-24.895,37.444L-24.895,37.445L-16.343,63.684L-11.628,78.851C-11.262,80.03 -10.171,80.833 -8.936,80.833L-2.665,80.833C-0.73,80.833 0.63,78.927 0,77.097" style="fill:rgb(208,189,42);fill-rule:nonzero;"/>
        </g>
        <g transform="matrix(4.16667,0,0,4.16667,227.209,2992.9)">
            <path d="M0,-95.711C-13.818,-81.931 -26.403,-67.809 -35.753,-51.112C-40.355,-42.896 -43.985,-34.324 -44.529,-24.709C-45.177,-13.251 -38.388,-6.472 -27.449,-8.196C-24.405,-8.676 -21.333,-9.884 -18.633,-11.399C-15.491,-13.161 -12.663,-15.527 -9.86,-17.827C-8.284,-19.12 -7.376,-18.968 -6.358,-16.791C-8.476,-14.384 -10.818,-11.968 -12.846,-9.312C-13.832,-8.022 -14.853,-6.256 -14.791,-4.75C-14.418,4.184 -14.109,13.149 -13.047,22.017C-11.984,30.897 -10.078,39.694 -4.679,47.203C-1.346,51.84 2.894,55.176 8.893,55.292C17.259,55.453 23.824,51.702 29.252,45.587C31.444,43.117 31.686,40.665 29.742,37.925C28.167,35.705 26.76,33.366 25.304,31.119C26.825,28.691 27.755,29.938 28.821,31.347C34.866,39.332 40.997,47.246 49.358,53.038C57.419,58.622 63.883,57.262 68.958,48.878C74.616,39.532 76.917,29.031 79.08,18.532C80.597,11.171 81.658,3.715 82.912,-3.633C79.733,-4.358 76.913,-4.797 74.244,-5.69C72.779,-6.181 70.317,-7.975 70.441,-8.263C71.567,-10.883 73.439,-8.754 74.823,-8.408C87.794,-5.169 96.985,-11.15 98.747,-23.973C99.494,-29.411 99.679,-35.233 98.581,-40.564C93.922,-63.19 81.994,-79.838 58.704,-86.48C57.881,-86.714 57.313,-87.841 56.627,-88.551C56.856,-88.778 57.086,-89.005 57.315,-89.232L60.275,-89.232C62.733,-93.659 65.344,-97.854 67.464,-102.283C71.976,-111.708 73.672,-121.576 69.891,-131.613C64.921,-144.805 54.568,-151.898 41.273,-154.779C30.585,-157.096 20.179,-156.033 11.398,-148.763C0.653,-139.868 -1.497,-127.646 -0.14,-114.717C0.727,-106.461 2.888,-98.342 4.519,-89.899C4.267,-89.806 3.554,-89.54 2.751,-89.241C1.832,-91.401 1.02,-93.311 0,-95.711M54.364,-154.846C72.585,-145.848 79.655,-127.846 72.846,-108.662C71.619,-105.205 70.2,-101.795 68.579,-98.506C66.964,-95.228 64.983,-92.13 63.04,-88.739C76.671,-85.646 86.555,-77.536 93.46,-65.887C101.396,-52.499 105.378,-38.051 102.507,-22.395C100.868,-13.459 96.621,-6.435 86.869,-4.251C86.225,-4.107 85.56,-2.821 85.393,-1.971C83.029,10.091 81.058,22.24 78.346,34.221C76.352,43.029 73.625,51.731 67.431,58.751C63.021,63.75 57.796,64.743 51.811,61.633C45.387,58.296 40.89,52.812 36.424,47.329C35.781,46.54 35.158,45.733 35.039,45.583C29.994,49.293 25.447,53.438 20.207,56.321C9.304,62.321 -0.954,59.25 -7.419,48.61C-12.828,39.708 -15.149,29.768 -16.261,19.578C-17.161,11.324 -17.463,3.005 -18.007,-4.93C-21.572,-4.272 -25.437,-2.959 -29.301,-2.961C-40.522,-2.968 -48.71,-11.912 -49.191,-24.061C-49.65,-35.689 -45.33,-45.892 -39.546,-55.572C-30.143,-71.308 -17.502,-84.256 -3.765,-96.18C-1.602,-98.058 -1.166,-99.572 -2.029,-102.301C-5.039,-111.817 -6.63,-121.528 -4.484,-131.509C-1.264,-146.488 11.18,-157.948 24.282,-159.201C37.385,-160.454 49.653,-157.173 54.364,-154.846" style="fill:rgb(230,231,232);fill-rule:nonzero;"/>
        </g>
        <g transform="matrix(4.16667,0,0,4.16667,305.21,2958.45)">
            <path d="M0,-67.659C0.217,-66.033 -0.146,-63.616 0.771,-62.943C2.783,-61.465 5.397,-60.405 7.863,-60.161C8.748,-60.074 10.251,-62.687 10.892,-64.298C13.812,-71.638 12.581,-73.539 4.694,-74.673C2.061,-75.052 0.707,-73.872 0.327,-71.452C0.135,-70.224 0.098,-67.667 0,-67.659M6.533,-56.714C6.178,-56.851 5.824,-56.989 5.469,-57.126C4.708,-55.637 3.545,-54.223 3.251,-52.646C1.52,-43.361 -0.217,-34.068 -1.532,-24.718C-2.424,-18.373 -2.579,-11.927 -3.156,-5.534C-3.613,-0.466 -0.774,4.83 3.888,7.315C10.005,3.06 10.797,1.89 10.423,-4.311C9.658,-17.009 8.765,-29.699 7.855,-42.388C7.512,-47.17 6.979,-51.939 6.533,-56.714M3.914,10.949C-0.618,8.178 -3.373,4.374 -5.552,0.112C-5.951,-0.67 -6.029,-1.725 -5.947,-2.626C-4.811,-15.094 -3.676,-27.563 -2.419,-40.019C-1.851,-45.653 -0.822,-51.247 -0.411,-56.888C-0.283,-58.64 -1.704,-60.45 -2.065,-62.302C-2.965,-66.911 -3.664,-71.56 -4.429,-76.113C0.684,-78.608 5.175,-77.766 9.554,-75.997C16.589,-73.156 16.412,-75.273 14.27,-66.753C13.444,-63.47 11.144,-60.571 9.659,-57.429C9.301,-56.672 9.354,-55.62 9.491,-54.747C10.908,-45.719 12.492,-36.717 13.797,-27.673C14.562,-22.368 15.136,-17.011 15.329,-11.66C15.405,-9.555 14.152,-7.418 13.617,-5.268C13.35,-4.193 13.046,-2.993 13.264,-1.957C13.85,0.831 12.976,2.921 10.883,4.717C8.508,6.755 6.212,8.887 3.914,10.949" style="fill:rgb(230,231,232);fill-rule:nonzero;"/>
        </g>
        <g transform="matrix(-2.94628,2.94628,2.94628,2.94628,487.055,2627.56)">
            <path d="M-0.763,-0.316L0.131,-0.316" style="fill:none;fill-rule:nonzero;"/>
        </g>
        <g transform="matrix(-2.94628,2.94628,2.94628,2.94628,489.918,2627.56)">
            <path d="M-0.277,-1.489L0.617,-1.489C1.504,-1.489 1.504,-0.115 0.618,-0.114C0.319,-0.114 0.022,-0.115 -0.277,-0.115C-1.163,-0.114 -1.164,-1.489 -0.277,-1.489" style="fill:rgb(35,31,32);fill-rule:nonzero;"/>
        </g>
        <g transform="matrix(4.16667,0,0,4.16667,331.902,2987.19)">
            <path d="M0,-63.615C-0.355,-63.753 -0.709,-63.89 -1.064,-64.028C-1.825,-62.539 -2.988,-61.124 -3.282,-59.548C-5.013,-50.263 -6.75,-40.969 -8.065,-31.619C-8.957,-25.274 -9.112,-18.828 -9.689,-12.435C-10.146,-7.368 -7.307,-2.071 -2.645,0.413C3.472,-3.841 4.264,-5.012 3.89,-11.212C3.125,-23.91 2.232,-36.601 1.322,-49.29C0.979,-54.072 0.446,-58.84 0,-63.615" style="fill:rgb(208,189,42);fill-rule:nonzero;"/>
        </g>
        <g transform="matrix(4.16667,0,0,4.16667,305.272,2677.17)">
            <path d="M0,-0.194C0.219,1.448 -0.148,3.889 0.778,4.57C2.81,6.062 5.451,7.132 7.941,7.379C8.835,7.467 10.354,4.828 11.001,3.201C13.95,-4.213 12.706,-6.133 4.741,-7.279C2.082,-7.661 0.714,-6.469 0.331,-4.025C0.136,-2.785 0.099,-0.202 0,-0.194" style="fill:rgb(208,189,42);fill-rule:nonzero;"/>
        </g>
    </g>
</svg>
